<svg xmlns="http://www.w3.org/2000/svg" version="1.1" xmlns:xlink="http://www.w3.org/1999/xlink" xmlns:svgjs="http://svgjs.com/svgjs" width="16.0px" height="16.0px"><svg xmlns:dc="http://purl.org/dc/elements/1.1/" xmlns:cc="http://creativecommons.org/ns#" xmlns:rdf="http://www.w3.org/1999/02/22-rdf-syntax-ns#" xmlns:svg="http://www.w3.org/2000/svg" xmlns="http://www.w3.org/2000/svg" width="16.0px" height="16.0px" viewBox="0 0 16.0 16.0" version="1.1" id="SvgjsSvg1010">
  <defs id="SvgjsDefs1009"></defs>
  <metadata id="SvgjsMetadata1008">
    <rdf:rdf>
      <cc:work rdf:about="">
        <dc:format>image/svg+xml</dc:format>
        <dc:type rdf:resource="http://purl.org/dc/dcmitype/StillImage"></dc:type>
        <dc:title></dc:title>
      </cc:work>
    </rdf:rdf>
  </metadata>
  <g id="SvgjsG1007">
    <rect style="fill:#ff0000;stroke:#000000;stroke-width:0.377953;stroke-linecap:round;stroke-opacity:1;fill-opacity:1" id="SvgjsRect1006" width="16" height="16" x="0" y="0"></rect>
    <path style="fill:#00ff1c;stroke:#000000;stroke-width:0.377953;stroke-linecap:round;stroke-opacity:1;fill-opacity:1" id="SvgjsPath1005" d="M 0.86273939,4.3862055 A 8,8 0 0 1 11.592524,0.85200918 8,8 0 0 1 15.158658,11.571221 8,8 0 0 1 4.4501131,15.169261 8,8 0 0 1 0.82019926,4.4714789"></path>
    <rect style="fill:none;stroke:#000000;stroke-width:0.377953;stroke-linecap:round;stroke-opacity:1" id="SvgjsRect1004" width="12" height="12" x="2" y="2"></rect>
    <path style="fill:#003fff;stroke:#000000;stroke-width:0.377953;stroke-linecap:round;stroke-opacity:1;fill-opacity:1" id="SvgjsPath1003" d="M 2.6470372,5.2896883 A 6,6 0 0 1 10.69437,2.6389956 6,6 0 0 1 13.368999,10.678405 6,6 0 0 1 5.3375838,13.376945 6,6 0 0 1 2.6151558,5.3535962"></path>
    <rect style="fill:none;stroke:#000000;stroke-width:0.377953;stroke-linecap:round;stroke-opacity:1" id="SvgjsRect1002" width="8" height="8" x="4" y="4"></rect>
    <path style="fill:#eeff00;stroke:#000000;stroke-width:0.377953;stroke-linecap:round;stroke-opacity:1;fill-opacity:1" id="SvgjsPath1001" d="M 4.4313581,6.1931256 A 4,4 0 0 1 9.7962469,4.425997 4,4 0 0 1 11.579332,9.7856034 4,4 0 0 1 6.2250558,11.58463 4,4 0 0 1 4.4101039,6.2357308"></path>
    <rect style="fill:none;stroke:#000000;stroke-width:0.377953;stroke-linecap:round;stroke-opacity:1" id="SvgjsRect1000" width="4" height="4" x="6" y="6"></rect>
  </g>
</svg><style>@media (prefers-color-scheme: light) { :root { filter: none; } }
</style></svg>