<?xml version="1.0" encoding="UTF-8"?>
<svg id="SVGRoot" version="1.1" viewBox="0 0 16 16" xmlns="http://www.w3.org/2000/svg" xmlns:cc="http://creativecommons.org/ns#" xmlns:dc="http://purl.org/dc/elements/1.1/" xmlns:rdf="http://www.w3.org/1999/02/22-rdf-syntax-ns#"><metadata><rdf:RDF><cc:Work rdf:about=""><dc:format>image/svg+xml</dc:format><dc:type rdf:resource="http://purl.org/dc/dcmitype/StillImage"/><dc:title/></cc:Work></rdf:RDF></metadata><circle cx="8" cy="8" r="5.7381" fill="#ffdb00"/><g transform="matrix(.94901 0 0 .94901 -17.278 -6.8228)" fill="none" stroke="#000" stroke-linecap="square" stroke-linejoin="round"><circle d="M 26.105519,18.552553 A 2.7132363,3.5853674 0 0 1 23.307731,19.386659 2.7132363,3.5853674 0 0 1 21.506666,16.4371 2.7132363,3.5853674 0 0 1 22.714867,12.999768" stroke-width="1.1897"/><path d="m27.458 12.809c0.5893-1.5521 2.356-1.9878 3.3934-0.23431s0.78735 4.2177-0.56736 5.5916c-1.3547 1.3738-3.334 1.1703-4.4912-0.46173" stroke-width="1.2166"/></g><path d="m0 0v16h16v-16h-16zm8 1.2617a6.7381 6.7381 0 0 1 6.7383 6.7383 6.7381 6.7381 0 0 1-6.7383 6.7383 6.7381 6.7381 0 0 1-6.7383-6.7383 6.7381 6.7381 0 0 1 6.7383-6.7383z" fill="#6a6a6a"/><circle cx="12" cy="12" r="2.7521" fill="#424242" stroke="#000" stroke-linecap="square" stroke-linejoin="round" stroke-width=".6403"/></svg>
