<?xml version="1.0" encoding="UTF-8"?>
<svg id="SVGRoot" version="1.1" viewBox="0 0 16 16" xmlns="http://www.w3.org/2000/svg" xmlns:cc="http://creativecommons.org/ns#" xmlns:dc="http://purl.org/dc/elements/1.1/" xmlns:rdf="http://www.w3.org/1999/02/22-rdf-syntax-ns#" xmlns:xlink="http://www.w3.org/1999/xlink"><defs><filter id="filter1565" color-interpolation-filters="sRGB"><feFlood flood-color="rgb(0,0,0)" flood-opacity=".78431" result="flood"/><feComposite in="flood" in2="SourceGraphic" operator="in" result="composite1"/><feGaussianBlur in="composite1" result="blur" stdDeviation="20.9581"/><feOffset dx="9.58084" dy="11.976" result="offset"/><feComposite in="SourceGraphic" in2="offset" result="composite2"/></filter><linearGradient id="linearGradient890" x1="4.1104" x2="17.148" y1="13.148" y2="-2.209" gradientUnits="userSpaceOnUse"><stop stop-color="#eb5e3b" offset="0"/><stop stop-color="#fffa61" offset="1"/></linearGradient><filter id="filter1565-9" color-interpolation-filters="sRGB"><feFlood flood-color="rgb(0,0,0)" flood-opacity=".78431" result="flood"/><feComposite in="flood" in2="SourceGraphic" operator="in" result="composite1"/><feGaussianBlur in="composite1" result="blur" stdDeviation="20.9581"/><feOffset dx="9.58084" dy="11.976" result="offset"/><feComposite in="SourceGraphic" in2="offset" result="composite2"/></filter><linearGradient id="linearGradient935" x1="9.5332" x2="4.94" y1="7.5079" y2=".84738" gradientUnits="userSpaceOnUse"><stop stop-color="#ff9000" offset="0"/><stop stop-color="#ffde00" offset="1"/></linearGradient></defs><metadata><rdf:RDF><cc:Work rdf:about=""><dc:format>image/svg+xml</dc:format><dc:type rdf:resource="http://purl.org/dc/dcmitype/StillImage"/><dc:title/></cc:Work></rdf:RDF></metadata><circle cx="8" cy="8" r="5.7381" fill="url(#linearGradient935)"/><path d="m5.6295 6.4586 1.0487-2.145 3.0514 2.5946 1.3202-2.5889 3.0709 1.677-0.17368 4.5342-3.3061 3.4499-6.2382-0.42344-2.5462-4.2589 0.73302-3.9979z" fill="url(#linearGradient890)"/><g fill="#ffffff"><path d="m2.4099 4.4522 2.2169-0.00811 2.3027 4.4648-1.1954 2.6498z" filter="url(#filter1565)" stroke="#ffffff" stroke-linecap="round" stroke-width=".3"/><path d="m6.8993 4.4508 2.2169-0.00811 2.3027 4.4648-1.1954 2.6498z" filter="url(#filter1565-9)" stroke="#ffffff" stroke-linecap="round" stroke-width=".3"/><path d="m11.268 4.4529 2.2169-0.00811 0.18929 0.0619-1.1954 2.5062z" stroke="#ffffff" stroke-linecap="round" stroke-width=".3"/><path d="m8.0723 1a7 7 0 0 0-6.3184 3.8379l-0.037109 0.074219a7 7 0 0 0 3.1777 9.3613 7 7 0 0 0 9.3691-3.1484 7 7 0 0 0-3.1211-9.3789 7 7 0 0 0-3.0703-0.74609zm-0.072266 1.2617a5.7381 5.7381 0 0 1 5.7383 5.7383 5.7381 5.7381 0 0 1-5.7383 5.7383 5.7381 5.7381 0 0 1-5.7383-5.7383 5.7381 5.7381 0 0 1 5.7383-5.7383z"/></g></svg>
