<?xml version="1.0" standalone="no"?>
<!DOCTYPE svg PUBLIC "-//W3C//DTD SVG 20010904//EN"
 "http://www.w3.org/TR/2001/REC-SVG-20010904/DTD/svg10.dtd">
<svg version="1.0" xmlns="http://www.w3.org/2000/svg"
 width="512.000000pt" height="512.000000pt" viewBox="0 0 512.000000 512.000000"
 preserveAspectRatio="xMidYMid meet">
<metadata>
Created by potrace 1.14, written by Peter Selinger 2001-2017
</metadata>
<g transform="translate(0.000000,512.000000) scale(0.100000,-0.100000)"
fill="#000000" stroke="none">
<path d="M2344 4379 c-202 -24 -406 -86 -604 -186 -182 -91 -301 -176 -453
-323 l-120 -115 174 -5 173 -5 143 -280 c79 -154 250 -486 379 -737 l235 -458
-212 -467 c-116 -258 -214 -474 -218 -480 -4 -7 -212 427 -476 992 -391 835
-472 1002 -482 988 -17 -22 -70 -173 -99 -278 -81 -303 -77 -666 11 -970 169
-583 611 -1044 1180 -1234 313 -104 631 -124 949 -60 545 110 1011 463 1266
959 133 261 189 481 197 785 7 265 -22 451 -108 690 l-33 90 -127 -260 -127
-260 -57 120 c-32 66 -136 284 -231 485 l-173 365 210 3 c115 1 209 6 209 10
0 17 -114 134 -203 208 -281 236 -608 378 -977 424 -97 12 -321 11 -426 -1z
m763 -941 c89 -172 260 -505 381 -740 l221 -426 -217 -481 c-119 -264 -220
-477 -223 -473 -4 4 -248 525 -544 1157 -296 633 -550 1175 -566 1206 -15 31
-25 59 -22 63 4 3 187 6 408 6 l401 0 161 -312z"/>
</g>
</svg>
