<?xml version="1.0" encoding="UTF-8" standalone="no"?>
<svg
   xmlns:dc="http://purl.org/dc/elements/1.1/"
   xmlns:cc="http://creativecommons.org/ns#"
   xmlns:rdf="http://www.w3.org/1999/02/22-rdf-syntax-ns#"
   xmlns:svg="http://www.w3.org/2000/svg"
   xmlns="http://www.w3.org/2000/svg"
   xmlns:sodipodi="http://sodipodi.sourceforge.net/DTD/sodipodi-0.dtd"
   xmlns:inkscape="http://www.inkscape.org/namespaces/inkscape"
   width="16.0px"
   height="16.0px"
   viewBox="0 0 16.0 16.0"
   version="1.1"
   id="SVGRoot"
   sodipodi:docname="template.svg"
   inkscape:version="1.0.1 (3bc2e813f5, 2020-09-07)">
  <defs
     id="defs852" />
  <sodipodi:namedview
     id="base"
     pagecolor="#ffffff"
     bordercolor="#666666"
     borderopacity="1.0"
     inkscape:pageopacity="0.0"
     inkscape:pageshadow="2"
     inkscape:zoom="31.678384"
     inkscape:cx="6.7234963"
     inkscape:cy="7.3489553"
     inkscape:document-units="px"
     inkscape:current-layer="layer1"
     inkscape:document-rotation="0"
     showgrid="true"
     inkscape:window-width="1294"
     inkscape:window-height="1198"
     inkscape:window-x="52"
     inkscape:window-y="52"
     inkscape:window-maximized="0">
    <inkscape:grid
       type="xygrid"
       id="grid1422" />
  </sodipodi:namedview>
  <metadata
     id="metadata855">
    <rdf:RDF>
      <cc:Work
         rdf:about="">
        <dc:format>image/svg+xml</dc:format>
        <dc:type
           rdf:resource="http://purl.org/dc/dcmitype/StillImage" />
        <dc:title></dc:title>
      </cc:Work>
    </rdf:RDF>
  </metadata>
  <g
     inkscape:label="Ebene 1"
     inkscape:groupmode="layer"
     id="layer1">
    <rect
       style="fill:#ff0000;stroke:#000000;stroke-width:0.377953;stroke-linecap:round;stroke-opacity:1;fill-opacity:1"
       id="rect1429"
       width="16"
       height="16"
       x="0"
       y="0" />
    <path
       style="fill:#00ff1c;stroke:#000000;stroke-width:0.377953;stroke-linecap:round;stroke-opacity:1;fill-opacity:1"
       id="path1437"
       sodipodi:type="arc"
       sodipodi:cx="8"
       sodipodi:cy="8"
       sodipodi:rx="8"
       sodipodi:ry="8"
       sodipodi:start="3.6102898"
       sodipodi:end="3.5983778"
       sodipodi:open="true"
       sodipodi:arc-type="arc"
       d="M 0.86273939,4.3862055 A 8,8 0 0 1 11.592524,0.85200918 8,8 0 0 1 15.158658,11.571221 8,8 0 0 1 4.4501131,15.169261 8,8 0 0 1 0.82019926,4.4714789" />
    <rect
       style="fill:none;stroke:#000000;stroke-width:0.377953;stroke-linecap:round;stroke-opacity:1"
       id="rect1431"
       width="12"
       height="12"
       x="2"
       y="2" />
    <path
       style="fill:#003fff;stroke:#000000;stroke-width:0.377953;stroke-linecap:round;stroke-opacity:1;fill-opacity:1"
       id="path1439"
       sodipodi:type="arc"
       sodipodi:cx="8"
       sodipodi:cy="8"
       sodipodi:rx="6"
       sodipodi:ry="6"
       sodipodi:start="3.6102834"
       sodipodi:end="3.5983802"
       sodipodi:open="true"
       sodipodi:arc-type="arc"
       d="M 2.6470372,5.2896883 A 6,6 0 0 1 10.69437,2.6389956 6,6 0 0 1 13.368999,10.678405 6,6 0 0 1 5.3375838,13.376945 6,6 0 0 1 2.6151558,5.3535962" />
    <rect
       style="fill:none;stroke:#000000;stroke-width:0.377953;stroke-linecap:round;stroke-opacity:1"
       id="rect1433"
       width="8"
       height="8"
       x="4"
       y="4" />
    <path
       style="fill:#eeff00;stroke:#000000;stroke-width:0.377953;stroke-linecap:round;stroke-opacity:1;fill-opacity:1"
       id="path1441"
       sodipodi:type="arc"
       sodipodi:cx="8"
       sodipodi:cy="8"
       sodipodi:rx="4"
       sodipodi:ry="4"
       sodipodi:start="3.6102834"
       sodipodi:end="3.5983802"
       sodipodi:open="true"
       sodipodi:arc-type="arc"
       d="M 4.4313581,6.1931256 A 4,4 0 0 1 9.7962469,4.425997 4,4 0 0 1 11.579332,9.7856034 4,4 0 0 1 6.2250558,11.58463 4,4 0 0 1 4.4101039,6.2357308" />
    <rect
       style="fill:none;stroke:#000000;stroke-width:0.377953;stroke-linecap:round;stroke-opacity:1"
       id="rect1435"
       width="4"
       height="4"
       x="6"
       y="6" />
    <path
       style="fill:#000000;fill-opacity:0.53667957;stroke:none;stroke-width:0.37795276;stroke-linecap:round;stroke-opacity:1;stroke-miterlimit:4;stroke-dasharray:none"
       id="path1443"
       sodipodi:type="arc"
       sodipodi:cx="8"
       sodipodi:cy="8"
       sodipodi:rx="7"
       sodipodi:ry="7"
       sodipodi:start="3.6102834"
       sodipodi:end="3.5983802"
       sodipodi:open="true"
       sodipodi:arc-type="arc"
       d="M 1.7548767,4.8379697 A 7,7 0 0 1 11.143432,1.7454948 7,7 0 0 1 14.263832,11.124806 7,7 0 0 1 4.8938477,14.273103 7,7 0 0 1 1.7176818,4.9125289" />
    <path
       style="fill:#000000;fill-opacity:0.53668;stroke:none;stroke-width:0.377953;stroke-linecap:round;stroke-miterlimit:4;stroke-dasharray:none;stroke-opacity:1"
       id="path1445"
       sodipodi:type="arc"
       sodipodi:cx="12.5"
       sodipodi:cy="12.5"
       sodipodi:rx="3.5"
       sodipodi:ry="3.5"
       sodipodi:start="3.6102834"
       sodipodi:end="3.5983802"
       sodipodi:open="true"
       sodipodi:arc-type="arc"
       d="m 9.3774384,10.918985 a 3.5,3.5 0 0 1 4.6942776,-1.5462376 3.5,3.5 0 0 1 1.5602,4.6896556 3.5,3.5 0 0 1 -4.684992,1.574148 3.5,3.5 0 0 1 -1.5880831,-4.680287" />
  </g>
</svg>
