<svg xmlns:xlink="http://www.w3.org/1999/xlink" id="SVGRoot" version="1.1" viewBox="0 0 16 16"
     xmlns="http://www.w3.org/2000/svg">
    <defs>
        <linearGradient id="linearGradientBrokenClouds" x1="9.6003" x2="6.8909" y1=".92964" y2="14.12"
                        gradientTransform="matrix(1.0567 0 0 1.0567 -.1002 -.54263)" gradientUnits="userSpaceOnUse"
                        xlink:href="#linearGradientBrokenCloudsGrey">
            <stop stop-color="#fff703" offset="0"/>
            <stop stop-color="#ff9d03" style="stop-color:#ffba03" offset="1"/>
        </linearGradient>
        <linearGradient id="linearGradientBrokenCloudsGrey" x1="8.872" x2="8.8739" y1="13.459" y2="2.8606"
                        gradientUnits="userSpaceOnUse">
            <stop style="stop-color:#a2a2a2" offset="0"/>
            <stop style="stop-color:#ffffff" offset="1"/>
        </linearGradient>
        <linearGradient id="linearGradientBrokenCloudsYellow" x1="9.7033" x2="6.8973" y1=".78426" y2="14.425"
                        gradientTransform="matrix(1.0567 0 0 1.0567 -.1002 -.54263)" gradientUnits="userSpaceOnUse">
            <stop stop-color="#fff703" style="stop-color:#ffeb03" offset="0"/>
            <stop stop-color="#ff9d03" style="stop-color:#ffc603" offset="1"/>
        </linearGradient>
        <linearGradient id="linearGradientBrokenCloudsYellow2" x1="9.7033" x2="6.8973" y1=".78426" y2="14.425"
                        gradientTransform="matrix(.7743 0 0 .7743 3.7004 1.1526)" gradientUnits="userSpaceOnUse"
                        xlink:href="#linearGradientBrokenCloudsYellow"/>
        <linearGradient id="linearGradientBrokenCloudsGrey2" x1="8.872" x2="8.8739" y1="13.459" y2="2.8606"
                        gradientTransform="matrix(.68341 0 0 .68341 .82021 4.4708)" gradientUnits="userSpaceOnUse"
                        xlink:href="#linearGradientBrokenCloudsGrey"/>
    </defs>
    <g style="stroke:url(#linearGradientBrokenClouds)">
        <path d="m7.9194 8.9979a2.3637 2.3637 0 0 1-0.37293-2.73 2.3637 2.3637 0 0 1 2.4664-1.2284 2.3637 2.3637 0 0 1 1.9542 1.9425 2.3637 2.3637 0 0 1-1.2136 2.4737"
              style="fill:none;stroke-linecap:round;stroke-width:1.5;stroke:url(#linearGradientBrokenCloudsYellow2)"/>
        <path d="m12.137 11.284 0.23485 0.36543"
              style="fill:none;stroke-linecap:round;stroke-width:1.5;stroke:url(#linearGradientBrokenCloudsYellow2)"/>
        <path d="m14.175 8.2916 0.34562 0.068408"
              style="fill:none;stroke-linecap:round;stroke-width:1.5;stroke:url(#linearGradientBrokenCloudsYellow2)"/>
        <path d="m4.7171 6.2802 0.39041 0.088348"
              style="fill:none;stroke-linecap:round;stroke-width:1.5;stroke:url(#linearGradientBrokenCloudsYellow2)"/>
        <path d="m13.827 4.6004-0.33484 0.22285"
              style="fill:none;stroke-linecap:round;stroke-width:1.5;stroke:url(#linearGradientBrokenCloudsYellow2)"/>
        <path d="m7.0601 3.5278-0.21998-0.33052"
              style="fill:none;stroke-linecap:round;stroke-width:1.5;stroke:url(#linearGradientBrokenCloudsYellow2)"/>
        <path d="m10.658 2.8621 0.08706-0.38471"
              style="fill:none;stroke-linecap:round;stroke-width:1.5;stroke:url(#linearGradientBrokenCloudsYellow2)"/>
        <path d="m6.9286 10.061a2.2045 2.2045 0 0 1 2.7209-1.1101 2.2045 2.2045 0 0 1 1.4067 2.58 2.2045 2.2045 0 0 1-2.407 1.6858"
              style="fill:none;stroke-linecap:round;stroke-width:1.5;stroke:url(#linearGradientBrokenCloudsGrey2)"/>
        <path d="m4.9576 13.176a3.1651 3.1651 0 0 1-3.3704-2.5929 3.1651 3.1651 0 0 1 2.252-3.6072 3.1651 3.1651 0 0 1 3.8095 1.8896"
              style="fill:none;stroke-linecap:round;stroke-width:1.5;stroke:url(#linearGradientBrokenCloudsGrey2)"/>
    </g>
</svg>
