<svg xmlns:xlink="http://www.w3.org/1999/xlink" id="SVGRoot" version="1.1" viewBox="0 0 16 16"
     xmlns="http://www.w3.org/2000/svg">
    <defs>
        <linearGradient id="linearGradientMoonYellow" x1="13.158" x2="3.7128" y1="3.0675" y2="12.803"
                        gradientTransform="matrix(1.0567 0 0 1.0567 -.1002 -.54263)" gradientUnits="userSpaceOnUse">
            <stop stop-color="#fff703" style="stop-color:#fff688" offset="0"/>
            <stop stop-color="#ff9d03" style="stop-color:#f1e33a" offset="1"/>
        </linearGradient>
        <linearGradient id="linearGradientMoonYellow2" x1="13.158" x2="3.7128" y1="3.0675" y2="12.803"
                        gradientTransform="matrix(1.0567 0 0 1.0567 -.1002 -.54263)" gradientUnits="userSpaceOnUse"
                        xlink:href="#linearGradientMoonYellow"/>
        <linearGradient id="linearGradientNightGrey" x1="6.9377" x2="6.8806" y1="13.86" y2="6.3179"
                        gradientUnits="userSpaceOnUse">
            <stop style="stop-color:#6c6c6c" offset="0"/>
            <stop style="stop-color:#a2a2a2" offset="1"/>
        </linearGradient>
    </defs>
    <g transform="translate(.67552 -.54349)">
        <g style="stroke:url(#linearGradientMoonYellow2)">
            <g transform="translate(.12698 -.031746)" style="stroke:url(#linearGradientMoonYellow2)">
                <path d="m9.8312 3.1088c1.9603 0.79332 3.1967 2.748 3.0736 4.8592-0.07856 1.3476-0.69992 2.5675-1.6695 3.4194"
                      style="fill:none;stroke-linecap:round;stroke-width:1.5;stroke:url(#linearGradientMoonYellow2)"/>
                <path d="m9.9245 3.236c1.1306 1.7871 0.99619 4.0961-0.3342 5.74"
                      style="fill:none;stroke-linecap:round;stroke-width:1.5;stroke:url(#linearGradientMoonYellow2)"/>
            </g>
        </g>
    </g>
    <g transform="translate(.65862 .24143)" style="stroke:url(#linearGradientNightGrey)">
        <path d="m6.9286 10.061a2.2045 2.2045 0 0 1 2.7209-1.1101 2.2045 2.2045 0 0 1 1.4067 2.58 2.2045 2.2045 0 0 1-2.407 1.6858"
              style="fill:none;stroke-linecap:round;stroke-width:1.5;stroke:url(#linearGradientNightGrey)"/>
        <path d="m4.9576 13.176a3.1651 3.1651 0 0 1-3.3704-2.5929 3.1651 3.1651 0 0 1 2.252-3.6072 3.1651 3.1651 0 0 1 3.8095 1.8896"
              style="fill:none;stroke-linecap:round;stroke-width:1.5;stroke:url(#linearGradientNightGrey)"/>
        <g style="stroke:url(#linearGradientNightGrey)">
            <path d="m6.9286 10.061a2.2045 2.2045 0 0 1 2.7209-1.1101 2.2045 2.2045 0 0 1 1.4067 2.58 2.2045 2.2045 0 0 1-2.407 1.6858"
                  style="fill:none;stroke-linecap:round;stroke-width:1.5;stroke:url(#linearGradientNightGrey)"/>
            <path d="m4.9576 13.176a3.1651 3.1651 0 0 1-3.3704-2.5929 3.1651 3.1651 0 0 1 2.252-3.6072 3.1651 3.1651 0 0 1 3.8095 1.8896"
                  style="fill:none;stroke-linecap:round;stroke-width:1.5;stroke:url(#linearGradientNightGrey)"/>
        </g>
    </g>
</svg>
