<?xml version="1.0" encoding="UTF-8"?>
<svg id="SVGRoot" version="1.1" viewBox="0 0 16 16" xmlns="http://www.w3.org/2000/svg">
    <defs>
        <linearGradient id="linearGradient2123" x1="8.5366" x2="8.389" y1="1.0261" y2="14.955"
                        gradientTransform="matrix(1.0567 0 0 1.0567 -.1002 -.54263)" gradientUnits="userSpaceOnUse">
            <stop stop-color="#fff703" offset="0"/>
            <stop stop-color="#ff9d03" offset="1"/>
        </linearGradient>
    </defs>
    <g>
        <path d="m16 8a8 8 0 0 1-8 8 8 8 0 0 1-8-8 8 8 0 0 1 8-8 8 8 0 0 1 8 8z" fill="#ffffff"/>
        <path d="m15.558 7.9011a7.1399 7.1399 0 0 1-7.1399 7.1399 7.1399 7.1399 0 0 1-7.1399-7.1399 7.1399 7.1399 0 0 1 7.1399-7.1399 7.1399 7.1399 0 0 1 7.1399 7.1399z"
              fill="url(#linearGradient2123)"/>
    </g>
</svg>
