<svg xmlns:xlink="http://www.w3.org/1999/xlink" id="SVGRoot" version="1.1" viewBox="0 0 16 16"
     xmlns="http://www.w3.org/2000/svg">
    <defs>
        <linearGradient id="linearGradient2193">
            <stop style="stop-color:#0d72ec" offset="0"/>
            <stop style="stop-color:#0a5dc1" offset="1"/>
        </linearGradient>
        <linearGradient id="linearGradient2195" x1="3.5957" x2="11.353" y1="8.1995" y2="12.762"
                        gradientTransform="matrix(.40449 .86603 -.7006 .5 12.434 -6.1823)"
                        gradientUnits="userSpaceOnUse" xlink:href="#linearGradient2193"/>
        <linearGradient id="linearGradient2195-2" x1="3.5957" x2="11.353" y1="8.1995" y2="12.762"
                        gradientTransform="matrix(.40449 .86603 -.7006 .5 17.046 -.36849)"
                        gradientUnits="userSpaceOnUse" xlink:href="#linearGradient2193"/>
        <linearGradient id="linearGradient2195-7" x1="3.5957" x2="11.353" y1="8.1995" y2="12.762"
                        gradientTransform="matrix(.40449 .86603 -.7006 .5 7.9103 -.52205)"
                        gradientUnits="userSpaceOnUse" xlink:href="#linearGradient2193"/>
    </defs>
    <path d="m8.0814 1.5813c0.50076 1.6207 2.2223 3.0406 2.2419 4.5646 0.01959 1.524-0.96205 2.3605-2.1949 2.3892-1.2328 0.02872-2.2521-0.76114-2.279-2.285-0.026882-1.5239 1.7004-3.0923 2.232-4.6688"
          style="fill:none;stroke-linecap:round;stroke-linejoin:round;stroke-width:1.5;stroke:url(#linearGradient2195)"/>
    <path d="m12.693 7.395c0.50076 1.6207 2.2223 3.0406 2.2419 4.5646 0.01959 1.524-0.96205 2.3605-2.1949 2.3892s-2.2521-0.76114-2.279-2.285c-0.02688-1.5239 1.7004-3.0923 2.232-4.6688"
          style="fill:none;stroke-linecap:round;stroke-linejoin:round;stroke-width:1.5;stroke:url(#linearGradient2195-2)"/>
    <path d="m3.5576 7.2415c0.50076 1.6207 2.2223 3.0406 2.2419 4.5646 0.01959 1.524-0.96205 2.3605-2.1949 2.3892-1.2328 0.02872-2.2521-0.76114-2.279-2.285-0.026882-1.5239 1.7004-3.0922 2.232-4.6688"
          style="fill:none;stroke-linecap:round;stroke-linejoin:round;stroke-width:1.5;stroke:url(#linearGradient2195-7)"/>
</svg>
