<svg id="SVGRoot" version="1.1" viewBox="0 0 16 16" xmlns="http://www.w3.org/2000/svg">
    <defs>
        <linearGradient id="linearGradientShowerRainYellow" x1="9.6003" x2="6.8909" y1=".92964" y2="14.12"
                        gradientTransform="matrix(1.0567 0 0 1.0567 -.1002 -.54263)" gradientUnits="userSpaceOnUse">
            <stop stop-color="#fff703" offset="0"/>
            <stop stop-color="#ff9d03" style="stop-color:#ffba03" offset="1"/>
        </linearGradient>
        <linearGradient id="linearGradientNightShowerRainGrey" x1="8.872" x2="8.8739" y1="13.459" y2="2.8606"
                        gradientUnits="userSpaceOnUse">
            <stop style="stop-color:#6c6c6c" offset="0"/>
            <stop style="stop-color:#a2a2a2" offset="1"/>
        </linearGradient>
        <linearGradient id="linearGradientNightShowerRainBlue" x1="3.5957" x2="11.353" y1="8.1995" y2="12.762"
                        gradientTransform="matrix(.22352 .1563 -.10179 .22352 8.2008 9.713)"
                        gradientUnits="userSpaceOnUse">
            <stop style="stop-color:#0b59b8" offset="0"/>
            <stop style="stop-color:#094691" offset="1"/>
        </linearGradient>
    </defs>
    <g style="stroke:url(#linearGradientShowerRainYellow)">
        <g style="stroke:url(#linearGradientNightShowerRainGrey)">
            <path d="m8.9382 8.1798a3.2257 3.2257 0 0 1 3.9813-1.6243 3.2257 3.2257 0 0 1 2.0583 3.7752 3.2257 3.2257 0 0 1-3.522 2.4667"
                  style="fill:none;stroke-linecap:round;stroke-width:1.5;stroke:url(#linearGradientNightShowerRainGrey)"/>
            <path d="m6.0541 12.738a4.6314 4.6314 0 0 1-4.9318-3.7941 4.6314 4.6314 0 0 1 3.2952-5.2782 4.6314 4.6314 0 0 1 5.5743 2.765"
                  style="fill:none;stroke-linecap:round;stroke-width:1.5;stroke:url(#linearGradientNightShowerRainGrey)"/>
        </g>
    </g>
    <path d="m8.2328 12.252c0.35498 0.32906 0.98299 0.43432 1.2053 0.80814 0.22228 0.37381 0.09904 0.72058-0.20152 0.90357-0.30055 0.18299-0.66513 0.13322-0.8892-0.23951-0.22409-0.37273-0.02099-1.0068-0.11455-1.4722"
          style="fill:none;stroke-linecap:round;stroke-linejoin:round;stroke-width:1.5;stroke:url(#linearGradientNightShowerRainBlue)"/>
</svg>
