<svg id="SVGRoot" version="1.1" viewBox="0 0 16 16" xmlns="http://www.w3.org/2000/svg">
    <defs>
        <linearGradient id="linearGradientShowerRainYellow" x1="9.6003" x2="6.8909" y1=".92964" y2="14.12"
                        gradientTransform="matrix(1.0567 0 0 1.0567 -.1002 -.54263)" gradientUnits="userSpaceOnUse">
            <stop stop-color="#fff703" offset="0"/>
            <stop stop-color="#ff9d03" style="stop-color:#ffba03" offset="1"/>
        </linearGradient>
        <linearGradient id="linearGradientShowerRainGrey" x1="8.872" x2="8.8739" y1="13.459" y2="2.8606"
                        gradientUnits="userSpaceOnUse">
            <stop style="stop-color:#a2a2a2" offset="0"/>
            <stop style="stop-color:#ffffff" offset="1"/>
        </linearGradient>
        <linearGradient id="linearGradientShowerRainBlue-8" x1="3.5957" x2="11.353" y1="8.1995" y2="12.762"
                        gradientTransform="matrix(.34051 .22744 -.15507 .32525 7.8838 8.0804)"
                        gradientUnits="userSpaceOnUse">
            <stop style="stop-color:#0d72ec" offset="0"/>
            <stop style="stop-color:#0a5dc1" offset="1"/>
        </linearGradient>
    </defs>
    <g style="stroke:url(#linearGradientShowerRainYellow)">
        <g style="stroke:url(#linearGradientShowerRainGrey)">
            <path d="m8.9382 8.1798a3.2257 3.2257 0 0 1 3.9813-1.6243 3.2257 3.2257 0 0 1 2.0583 3.7752 3.2257 3.2257 0 0 1-3.522 2.4667"
                  style="fill:none;stroke-linecap:round;stroke-width:1.5;stroke:url(#linearGradientShowerRainGrey)"/>
            <path d="m6.0541 12.738a4.6314 4.6314 0 0 1-4.9318-3.7941 4.6314 4.6314 0 0 1 3.2952-5.2782 4.6314 4.6314 0 0 1 5.5743 2.765"
                  style="fill:none;stroke-linecap:round;stroke-width:1.5;stroke:url(#linearGradientShowerRainGrey)"/>
        </g>
    </g>
    <path d="m7.9325 11.775c0.54078 0.47883 1.4975 0.632 1.8362 1.176 0.33862 0.54395 0.15088 1.0485-0.307 1.3148-0.45786 0.26628-1.0133 0.19385-1.3546-0.34852-0.34138-0.54238-0.03198-1.465-0.17451-2.1423"
          style="fill:none;stroke-linecap:round;stroke-linejoin:round;stroke-width:.75;stroke:url(#linearGradientShowerRainBlue-8)"/>
</svg>
