<svg id="SVGRoot" version="1.1" viewBox="0 0 16 16" xmlns="http://www.w3.org/2000/svg">
    <defs>
        <linearGradient id="linearGradientSnowGrey" x1="8" x2="8" y1="14" y2="2" gradientUnits="userSpaceOnUse">
            <stop style="stop-color:#a2a2a2" offset="0"/>
            <stop style="stop-color:#ffffff" offset="1"/>
        </linearGradient>
    </defs>
    <g style="stroke:url(#linearGradientSnowGrey)">
        <path d="m8 4-1.7812-1"
              style="fill:none;stroke-linecap:round;stroke-width:1.5;stroke:url(#linearGradientSnowGrey)"/>
        <path d="m8 4 2-1" style="fill:none;stroke-linecap:round;stroke-width:1.5;stroke:url(#linearGradientSnowGrey)"/>
        <path d="m8 2v6" style="fill:none;stroke-linecap:round;stroke-width:1.5;stroke:url(#linearGradientSnowGrey)"/>
        <path d="m8 8 5-3" style="fill:none;stroke-linecap:round;stroke-width:1.5;stroke:url(#linearGradientSnowGrey)"/>
        <path d="m8 8 5 3" style="fill:none;stroke-linecap:round;stroke-width:1.5;stroke:url(#linearGradientSnowGrey)"/>
        <path d="m3 5 5 3" style="fill:none;stroke-linecap:round;stroke-width:1.5;stroke:url(#linearGradientSnowGrey)"/>
        <path d="m11 6 2 1"
              style="fill:none;stroke-linecap:round;stroke-width:1.5;stroke:url(#linearGradientSnowGrey)"/>
        <path d="m11 6 0.40625-1.8281"
              style="fill:none;stroke-linecap:round;stroke-width:1.5;stroke:url(#linearGradientSnowGrey)"/>
        <path d="m8 8v6" style="fill:none;stroke-linecap:round;stroke-width:1.5;stroke:url(#linearGradientSnowGrey)"/>
        <path d="m3 11 5-3"
              style="fill:none;stroke-linecap:round;stroke-width:1.5;stroke:url(#linearGradientSnowGrey)"/>
        <path d="M 4.84375,11.78125 5,10"
              style="fill:none;stroke-linecap:round;stroke-width:1.5;stroke:url(#linearGradientSnowGrey)"/>
        <path d="m3 9 2 1" style="fill:none;stroke-linecap:round;stroke-width:1.5;stroke:url(#linearGradientSnowGrey)"/>
        <path d="m5 6-0.21875-1.7812"
              style="fill:none;stroke-linecap:round;stroke-width:1.5;stroke:url(#linearGradientSnowGrey)"/>
        <path d="m5 6-2 1" style="fill:none;stroke-linecap:round;stroke-width:1.5;stroke:url(#linearGradientSnowGrey)"/>
        <path d="m6 13 2-1"
              style="fill:none;stroke-linecap:round;stroke-width:1.5;stroke:url(#linearGradientSnowGrey)"/>
        <path d="m10 13-2-1"
              style="fill:none;stroke-linecap:round;stroke-width:1.5;stroke:url(#linearGradientSnowGrey)"/>
        <path d="m13 9-2 1"
              style="fill:none;stroke-linecap:round;stroke-width:1.5;stroke:url(#linearGradientSnowGrey)"/>
        <path d="M 11.28125,11.8125 11,10"
              style="fill:none;stroke-linecap:round;stroke-width:1.5;stroke:url(#linearGradientSnowGrey)"/>
    </g>
</svg>
