<svg id="SVGRoot" version="1.1" viewBox="0 0 16 16" xmlns="http://www.w3.org/2000/svg">
    <defs>
        <linearGradient id="linearGradientCloudyGrey" x1="8.872" x2="8.8739" y1="13.459" y2="2.8606"
                        gradientUnits="userSpaceOnUse">
            <stop style="stop-color:#a2a2a2" offset="0"/>
            <stop style="stop-color:#ffffff" offset="1"/>
        </linearGradient>
        <linearGradient id="linearGradientLightningYellow" x1="8.0635" x2="9.5637" y1="10.54" y2="15.247"
                        gradientTransform="rotate(15 9.2997 12.408)" gradientUnits="userSpaceOnUse">
            <stop style="stop-color:#b7ba00" offset="0"/>
            <stop style="stop-color:#fafe00" offset="1"/>
        </linearGradient>
    </defs>
    <g style="stroke:url(#linearGradientCloudyGrey)">
        <path d="m8.9382 8.1798a3.2257 3.2257 0 0 1 3.9813-1.6243 3.2257 3.2257 0 0 1 2.0583 3.7752 3.2257 3.2257 0 0 1-3.522 2.4667"
              style="fill:none;stroke-linecap:round;stroke-width:1.5;stroke:url(#linearGradientCloudyGrey)"/>
        <path d="m6.0541 12.738a4.6314 4.6314 0 0 1-4.9318-3.7941 4.6314 4.6314 0 0 1 3.2952-5.2782 4.6314 4.6314 0 0 1 5.5743 2.765"
              style="fill:none;stroke-linecap:round;stroke-width:1.5;stroke:url(#linearGradientCloudyGrey)"/>
    </g>
    <path d="m8.5891 10.283 1.1207 2.5023-1.9346 0.10607 1.0448 2.3264"
          style="fill:none;stroke-linecap:round;stroke-linejoin:round;stroke-width:1.5;stroke:url(#linearGradientLightningYellow)"/>
</svg>
